<svg xmlns="http://www.w3.org/2000/svg" xmlns:xlink="http://www.w3.org/1999/xlink" width="2228" height="4432" viewBox="0 0 2228 4432"><defs><path id="8psoa" d="M-297.31 4576.18c76.17-72.53 334.5-383.58 592.33-312.77 236.89 65.06 214.43 249.83 395.35 337.76 306 148.73 491.2-383.71 850.74-269.3 182.51 58.07 299.47 189.37 418.93 272.24"/><path id="8psob" d="M-297.31 4579.32c78.37-69.14 333.41-368.36 588.63-297.15 234.76 65.46 217.29 247.34 398.83 334.13 275.57 131.08 457.14-268.2 745.92-281.89 35.7-1.65 72.95 2.7 112.46 14.57 181.98 54.68 300.61 179.77 421.2 258.16"/><path id="8psoc" d="M-299.46 4585.42c80.51-65.9 332.15-354.06 584.62-282.27 232.52 66.03 219.6 245.68 402.12 331.35 278.06 130.49 465.12-262.87 753.78-279.16 35.55-2 72.52 1.98 111.87 13.14 181.4 51.42 301.61 170.61 423.26 244.72"/><path id="8psod" d="M-300.54 4589.87c82.7-62.3 331.03-337.7 580.85-265.77 230.4 66.22 222.26 242.5 405.63 326.65 281.07 128.98 473.35-255.84 762-274.82 35.43-2.33 72.16 1.27 111.35 11.64 180.95 47.87 302.75 160.47 425.5 229.87"/><path id="8psoe" d="M-303.77 4596.14c84.86-58.58 331.77-325.3 578.95-253.43 228.33 66.24 225 238.7 409.2 321.11 284.17 127.15 481.66-248.16 770.39-269.77 35.3-2.64 71.8.55 110.82 10.12 180.6 44.24 303.93 150 427.82 214.54"/><path id="8psof" d="M-302.69 4598.76c87-55.32 328.72-306.1 573.18-233.73 226.2 66.77 227.68 236.77 412.68 318.11 287.21 126.3 489.85-242.45 778.57-266.85 35.18-2.97 71.45-.16 110.3 8.67 180.23 40.98 305 140.76 429.98 200.97"/><path id="8psog" d="M-297.31 2639.18c76.17-72.53 334.5-383.58 592.33-312.77 236.89 65.06 214.43 249.83 395.35 337.76 306 148.73 491.2-383.71 850.74-269.3 182.51 58.07 299.47 189.37 418.93 272.24"/><path id="8psoh" d="M-297.31 2642.32c78.37-69.14 333.41-368.36 588.63-297.15 234.76 65.46 217.29 247.34 398.83 334.13 275.57 131.08 457.14-268.2 745.92-281.89 35.7-1.65 72.95 2.7 112.46 14.57 181.98 54.68 300.61 179.77 421.2 258.16"/><path id="8psoi" d="M-299.46 2648.42c80.51-65.9 332.15-354.06 584.62-282.27 232.52 66.03 219.6 245.68 402.12 331.35 278.06 130.49 465.12-262.87 753.78-279.16 35.55-2 72.52 1.98 111.87 13.14 181.4 51.42 301.61 170.61 423.26 244.72"/><path id="8psoj" d="M-300.54 2652.87c82.7-62.3 331.03-337.7 580.85-265.77 230.4 66.22 222.26 242.5 405.63 326.65 281.07 128.98 473.35-255.84 762-274.82 35.43-2.33 72.16 1.27 111.35 11.64 180.95 47.87 302.75 160.47 425.5 229.87"/><path id="8psok" d="M-303.77 2659.14c84.86-58.58 331.77-325.3 578.95-253.43 228.33 66.24 225 238.7 409.2 321.11 284.17 127.15 481.66-248.16 770.39-269.77 35.3-2.64 71.8.55 110.82 10.12 180.6 44.24 303.93 150 427.82 214.54"/><path id="8psol" d="M-302.69 2661.76c87-55.32 328.72-306.1 573.18-233.73 226.2 66.77 227.68 236.77 412.68 318.11 287.21 126.3 489.85-242.45 778.57-266.85 35.18-2.97 71.45-.16 110.3 8.67 180.23 40.98 305 140.76 429.98 200.97"/><path id="8psom" d="M-273.31 1243.18c76.17-72.53 334.5-383.58 592.33-312.77 236.89 65.06 214.43 249.83 395.35 337.76 306 148.73 491.2-383.71 850.74-269.3 182.51 58.07 299.47 189.37 418.93 272.24"/><path id="8pson" d="M-273.31 1246.32c78.37-69.14 333.41-368.36 588.63-297.15 234.76 65.46 217.29 247.34 398.83 334.13 275.57 131.08 457.14-268.2 745.92-281.89 35.7-1.65 72.95 2.7 112.46 14.57 181.98 54.68 300.61 179.77 421.2 258.16"/><path id="8psoo" d="M-275.46 1252.42c80.51-65.9 332.15-354.06 584.62-282.27 232.52 66.03 219.6 245.68 402.12 331.35 278.06 130.49 465.12-262.87 753.78-279.16 35.55-2 72.52 1.98 111.87 13.14 181.4 51.42 301.61 170.61 423.26 244.72"/><path id="8psop" d="M-276.54 1256.87c82.7-62.3 331.03-337.7 580.85-265.77 230.4 66.22 222.26 242.5 405.63 326.65 281.07 128.98 473.35-255.84 762-274.82 35.43-2.33 72.16 1.27 111.35 11.64 180.95 47.87 302.75 160.47 425.5 229.87"/><path id="8psoq" d="M-279.77 1263.14c84.86-58.58 331.77-325.3 578.95-253.43 228.33 66.24 225 238.7 409.2 321.11 284.17 127.15 481.66-248.16 770.39-269.77 35.3-2.64 71.8.55 110.82 10.12 180.6 44.24 303.93 150 427.82 214.54"/><path id="8psor" d="M-278.69 1265.76c87-55.32 328.72-306.1 573.18-233.73 226.2 66.77 227.68 236.77 412.68 318.11 287.21 126.3 489.85-242.45 778.57-266.85 35.18-2.97 71.45-.16 110.3 8.67 180.23 40.98 305 140.76 429.98 200.97"/></defs><g><g transform="rotate(-156 970.26 4128.72)"><g><use fill="#fff" fill-opacity="0" stroke="silver" stroke-dasharray="2 2" stroke-linecap="square" stroke-miterlimit="50" xlink:href="#8psoa"/></g><g><use fill="#fff" fill-opacity="0" stroke="silver" stroke-dasharray="2 2" stroke-linecap="square" stroke-miterlimit="50" xlink:href="#8psob"/></g><g><use fill="#fff" fill-opacity="0" stroke="silver" stroke-dasharray="2 2" stroke-linecap="square" stroke-miterlimit="50" xlink:href="#8psoc"/></g><g><use fill="#fff" fill-opacity="0" stroke="silver" stroke-dasharray="2 2" stroke-linecap="square" stroke-miterlimit="50" xlink:href="#8psod"/></g><g><use fill="#fff" fill-opacity="0" stroke="silver" stroke-dasharray="2 2" stroke-linecap="square" stroke-miterlimit="50" xlink:href="#8psoe"/></g><g><use fill="#fff" fill-opacity="0" stroke="silver" stroke-dasharray="2 2" stroke-linecap="square" stroke-miterlimit="50" xlink:href="#8psof"/></g></g><g transform="scale(1 -1) rotate(-24 -9514.72 -318.78)"><g><use fill="#fff" fill-opacity="0" stroke="silver" stroke-dasharray="2 2" stroke-linecap="square" stroke-miterlimit="50" xlink:href="#8psog"/></g><g><use fill="#fff" fill-opacity="0" stroke="silver" stroke-dasharray="2 2" stroke-linecap="square" stroke-miterlimit="50" xlink:href="#8psoh"/></g><g><use fill="#fff" fill-opacity="0" stroke="silver" stroke-dasharray="2 2" stroke-linecap="square" stroke-miterlimit="50" xlink:href="#8psoi"/></g><g><use fill="#fff" fill-opacity="0" stroke="silver" stroke-dasharray="2 2" stroke-linecap="square" stroke-miterlimit="50" xlink:href="#8psoj"/></g><g><use fill="#fff" fill-opacity="0" stroke="silver" stroke-dasharray="2 2" stroke-linecap="square" stroke-miterlimit="50" xlink:href="#8psok"/></g><g><use fill="#fff" fill-opacity="0" stroke="silver" stroke-dasharray="2 2" stroke-linecap="square" stroke-miterlimit="50" xlink:href="#8psol"/></g></g><g transform="rotate(-156 994.26 795.72)"><g><use fill="#fff" fill-opacity="0" stroke="silver" stroke-dasharray="2 2" stroke-linecap="square" stroke-miterlimit="50" xlink:href="#8psom"/></g><g><use fill="#fff" fill-opacity="0" stroke="silver" stroke-dasharray="2 2" stroke-linecap="square" stroke-miterlimit="50" xlink:href="#8pson"/></g><g><use fill="#fff" fill-opacity="0" stroke="silver" stroke-dasharray="2 2" stroke-linecap="square" stroke-miterlimit="50" xlink:href="#8psoo"/></g><g><use fill="#fff" fill-opacity="0" stroke="silver" stroke-dasharray="2 2" stroke-linecap="square" stroke-miterlimit="50" xlink:href="#8psop"/></g><g><use fill="#fff" fill-opacity="0" stroke="silver" stroke-dasharray="2 2" stroke-linecap="square" stroke-miterlimit="50" xlink:href="#8psoq"/></g><g><use fill="#fff" fill-opacity="0" stroke="silver" stroke-dasharray="2 2" stroke-linecap="square" stroke-miterlimit="50" xlink:href="#8psor"/></g></g></g></svg>
