<svg xmlns="http://www.w3.org/2000/svg" xmlns:xlink="http://www.w3.org/1999/xlink" width="179" height="133" viewBox="0 0 179 133"><defs><path id="uhy7b" d="M225.49 60.39a3.61 3.61 0 0 0-2.61-2.23v-.65c.82 0 3.54.1 4.17.1.58 0 3.22-.1 4.06-.1v.64c-.75.14-1.6.56-1.6 1.33 0 .54.33 1.29.96 2.7l5.98 13.58 5.65-13.6c.44-1.11.77-1.95.77-2.6 0-.73-.67-1.22-1.6-1.41v-.64c.74 0 2.56.1 3.14.1.53 0 2.69-.1 3.5-.1v.62c-1.4.38-2.26 1.19-3.05 3.02l-8.32 19.62h-1.88z"/><path id="uhy7c" d="M145 80.02c1.09-.25 1.85-.74 1.85-1.97V60.07c0-1.19-.71-1.67-1.85-1.97v-.64c.57 0 3.03.1 3.62.1.7 0 3.27-.1 3.83-.1v.64c-1.08.25-1.89.74-1.89 1.97v7.51h13.4v-7.51c0-1.23-.71-1.72-1.84-1.97v-.64c.56 0 3.1.1 3.78.1.6 0 3.1-.1 3.66-.1v.64c-1.08.25-1.88.74-1.88 1.97v17.98c0 1.19.75 1.68 1.88 1.97v.6l-3.66-.06-3.78.05v-.59c1.08-.25 1.84-.74 1.84-1.97v-8.5h-13.4v8.5c0 1.23.75 1.68 1.9 1.97v.6c-.57 0-3.15-.06-3.84-.06l-3.62.05z"/><path id="uhy7a" d="M299.99 57.31H324v23.45H300z"/><path id="uhy7e" d="M299.99 80.02c1.4-.25 2.16-.8 2.16-2.07V60.07c0-1.24-.76-1.72-2.1-1.97v-.64c.77 0 3.29.1 3.99.1 1.12 0 4.27-.25 6.71-.25 8.25 0 13.25 4.6 13.25 11.6 0 6.8-5.2 11.85-13.7 11.85-2.46 0-5.36-.2-6.5-.2-.7 0-3.04.1-3.81.1zm5.87-1.18c.84.15 2.39.25 3.61.25 6.92 0 10.53-4.17 10.53-9.98 0-6.03-3.8-10.27-10.28-10.27-1.32 0-2.97.1-3.86.24z"/><path id="uhy7f" d="M206.68 77.89c0 1.19.76 1.84 2.15 2.13v.64c-.77 0-3.3-.1-4.02-.1-.61 0-3.09.1-3.86.1v-.64c1.3-.24 2.05-.88 2.05-2.13V60.13c0-1.1-.6-1.78-2.05-2.03v-.64c.78 0 3.22.1 3.9.1 1.14 0 4.36-.19 5.62-.19 5.54 0 8.63 2.3 8.63 6.21 0 3.1-2.3 5.18-5.83 6.03 0 0 .8.47 1.6 1.41.98 1.15 3.68 5.01 4.77 6.34 1.1 1.32 2.5 2.8 4 2.87v.52c-.72.16-1.87.3-2.75.3-1.89 0-3.4-.67-4.85-2.44-1.26-1.53-3.46-4.8-4.72-6.4a5.24 5.24 0 0 0-3.56-2.13 19 19 0 0 0-1.08-.15zm0-9.43c.74.1 1.82.14 2.9.14 4.34 0 5.7-2.5 5.7-4.7 0-3.13-2.09-5.06-5.89-5.06-.78 0-1.92.1-2.7.24z"/><path id="uhy7g" d="M279.75 77.89c0 1.19.76 1.84 2.15 2.13v.64c-.77 0-3.29-.1-4.02-.1-.62 0-3.09.1-3.86.1v-.64c1.29-.24 2.05-.88 2.05-2.13V60.13c0-1.1-.6-1.78-2.05-2.03v-.64c.78 0 3.22.1 3.9.1 1.14 0 4.36-.19 5.62-.19 5.55 0 8.63 2.3 8.63 6.21 0 3.1-2.3 5.18-5.84 6.03 0 0 .8.47 1.6 1.41 1 1.15 3.7 5.01 4.78 6.34 1.1 1.32 2.5 2.8 3.99 2.87v.52c-.71.16-1.87.3-2.74.3-1.9 0-3.4-.67-4.85-2.44-1.26-1.53-3.46-4.8-4.73-6.4a5.24 5.24 0 0 0-3.55-2.13l-1.08-.15zm0-9.43c.74.1 1.82.14 2.9.14 4.33 0 5.7-2.5 5.7-4.7 0-3.13-2.1-5.06-5.88-5.06-.79 0-1.93.1-2.72.24z"/><path id="uhy7h" d="M173.1 80.02c1.46-.35 2.26-1.3 2.8-2.57l7.42-17.85c.31-.74.68-2.26.68-2.26h2.08s.37 1.52.68 2.26l7.84 17.9c.56 1.23 1.17 2.12 2.73 2.52v.6c-.86 0-3.5-.06-4.1-.06-.6 0-3.11.05-3.97.05v-.6c1.15-.27 1.51-.86 1.51-1.42 0-.48-.2-1.01-.44-1.57l-1.68-3.85h-8.64l-1.55 3.87a4.73 4.73 0 0 0-.38 1.47c0 .65.34 1.16 1.64 1.5v.6c-.77 0-2.8-.05-3.27-.05l-3.36.05zm14.76-8.67l-3.69-8.6-3.43 8.6z"/><path id="uhy7i" d="M246.61 80.02c1.47-.35 2.28-1.3 2.8-2.57l7.43-17.85c.32-.74.69-2.26.69-2.26h2.07s.37 1.52.68 2.26l7.84 17.9c.56 1.23 1.17 2.12 2.72 2.52v.6c-.85 0-3.49-.06-4.1-.06-.59 0-3.1.05-3.95.05v-.6c1.15-.27 1.5-.86 1.5-1.42 0-.48-.2-1.01-.43-1.57l-1.7-3.85h-8.64l-1.54 3.87a4.75 4.75 0 0 0-.38 1.47c0 .65.34 1.16 1.64 1.5v.6c-.77 0-2.8-.05-3.27-.05l-3.36.05zm14.78-8.67l-3.7-8.6-3.43 8.6z"/><path id="uhy7j" d="M171.94 113.92c1.03-.19 1.44-.99 1.44-1.6V98.58c0-.72-.41-1.29-1.55-1.52v-.49c.42 0 2.5.08 3.03.08.46 0 2.58-.08 3-.08v.5c-1.1.26-1.6.75-1.6 1.5v14.26h5.5c1.86 0 2.77-.64 3.53-2.16l.49.11-.5 3.72c-1.7-.15-2.72-.15-4.66-.15h-5.76c-.53 0-2.35.07-2.92.07z"/><path id="uhy7k" d="M190.36 113.92c1.14-.23 1.6-.8 1.6-1.52V98.57c0-.72-.46-1.29-1.6-1.52v-.49c.42 0 2.58.08 3.1.08.46 0 2.59-.08 3-.08v.5c-1.1.26-1.63.75-1.63 1.5v13.84c0 .76.53 1.25 1.63 1.52v.5c-.41 0-2.54-.08-3-.08-.52 0-2.68.07-3.1.07z"/><path id="uhy7l" d="M202.22 113.92c1.02-.19 1.44-.98 1.44-1.59V98.57c0-.57-.45-1.32-1.44-1.51v-.5c.57 0 2.39.08 2.92.08.87 0 3.1-.19 4.1-.19 3.44 0 6.02 1.48 6.02 4.55 0 2-1.4 3.33-3.15 3.94 2.4.72 4.1 2.5 4.1 4.55 0 3.83-3.49 5-6.94 5-.98 0-3.26-.15-4.13-.15-.53 0-2.35.08-2.92.08zm5.8-9.59c2.5 0 4.1-.75 4.1-3.22 0-2.04-1.45-3.49-3.91-3.49-.6 0-1.1.08-1.67.2v6.51zm-1.48 8.65c.6.1 1.52.15 2.12.15 2.73 0 4.4-1.37 4.4-3.72 0-2.3-2-3.71-4.32-3.71h-2.2z"/><path id="uhy7m" d="M220.27 113.92c.95-.19 1.44-.94 1.44-1.55v-13.8c0-.57-.42-1.32-1.44-1.51v-.5c.57 0 2.39.08 2.92.08.87 0 3.41-.19 4.4-.19 3.48 0 6.97 1.48 6.97 5.27 0 2.27-1.82 3.98-4.51 4.66l4.59 5.3c.68.8 1.63 1.79 2.5 2.24v.42c-2.62.38-3.83.19-5.39-1.6l-5.23-6.06c-.72 0-1.36-.03-1.93-.11v5.8c0 .57.5 1.33 1.52 1.55v.5c-.57 0-2.47-.08-3-.08-.45 0-2.27.08-2.84.08zm4.32-8.71c.57.07 1.56.1 2.39.1 3.37 0 4.43-1.92 4.43-3.63 0-2.43-1.66-4.06-4.62-4.06-.6 0-1.6.08-2.2.2z"/><path id="uhy7n" d="M239.52 113.92c1.02-.26 1.44-1.02 1.9-1.97l6.17-13.46c.27-.56.65-2.08.65-2.08h1.86s.41 1.52.64 2.08l5.65 13.5c.41.95.83 1.63 2 1.93v.46l-2.91-.04-2.8.04v-.46c.86-.26.98-.8.9-1.17-.04-.2-.26-.8-.34-.99l-1.14-2.54h-7.43l-1.13 2.54c-.08.19-.3.8-.34.99-.08.37.22.9 1.1 1.17v.46c-.57 0-1.82-.04-2.2-.04h-2.58zm11.98-6.18l-3-7.09-3.18 7.1z"/><path id="uhy7o" d="M261.47 113.92c.95-.19 1.44-.94 1.44-1.55v-13.8c0-.57-.42-1.32-1.44-1.51v-.5c.57 0 2.39.08 2.92.08.87 0 3.41-.19 4.4-.19 3.48 0 6.97 1.48 6.97 5.27 0 2.27-1.82 3.98-4.51 4.66l4.59 5.3c.68.8 1.63 1.79 2.5 2.24v.42c-2.62.38-3.83.19-5.38-1.6l-5.24-6.06c-.72 0-1.36-.03-1.93-.11v5.8c0 .57.5 1.33 1.52 1.55v.5c-.57 0-2.47-.08-3-.08-.45 0-2.27.08-2.84.08zm4.32-8.71c.57.07 1.56.1 2.39.1 3.37 0 4.43-1.92 4.43-3.63 0-2.43-1.66-4.06-4.62-4.06-.6 0-1.6.08-2.2.2z"/><path id="uhy7p" d="M285.24 113.92c1.02-.19 1.51-.95 1.51-1.55v-6.14l-5-6.98c-.64-.9-1.52-1.86-2.35-2.2v-.49c.64 0 2.31.08 2.8.08.46 0 2.17-.08 2.85-.08v.5c-.42.07-.6.56-.6.71 0 .2.03.57.3.95l4.05 5.72 4.06-5.64c.38-.53.45-.88.45-1.14 0-.11-.19-.53-.76-.6v-.5c.57 0 1.94.08 2.32.08.37 0 1.74-.08 2.3-.08v.5a7.66 7.66 0 0 0-3.02 2.72l-4.52 6.3v6.29c0 .6.46 1.36 1.48 1.55v.5c-.57 0-2.46-.08-3-.08-.45 0-2.23.07-2.87.07z"/><path id="uhy7q" d="M210.36 132.26h48.27v18.22c0 8.35-3.11 26.05-23.95 39.23 0 0-22.6-9.42-24.32-39.23z"/><path id="uhy7r" d="M234.72 190.1l-.17-.07c-.22-.1-22.8-9.85-24.52-39.52v-18.58h48.95v18.56c0 7.3-2.35 25.76-24.12 39.51zm-24.01-57.5v17.89c1.62 27.93 21.94 37.93 23.95 38.85 21.33-13.57 23.64-31.68 23.64-38.85v-17.88z"/><path id="uhy7s" d="M247.35 156.43s-.43 1.37-2.35-.04l-6.57-.15s-.86.27-.98-.63c0 0 .16-1.8.08-1.96 0 0 .04-.5-.82-.5 0 0-1.33.15-1.37-1.02 0 0-.24-1.25 1.6-1.21 0 0 .59.27.63-.47 0 0-.08-5.09-.04-5.48 0 0 .16-.47-.74-.55 0 0-1.3.28-1.45-.58 0 0-.08-1.3.78-1.37 0 0 1.06.08 1.25-.2 0 0 .24.16.2-.78l.04-1.6s.12-.43.78-.4c0 0 1.21.08 1.37-.03 0 0 .27-.36.35-.51 0 0 .63-.04.74.12 0 0 .94.62 4.5.39 0 0 .55 0 .67.15 0 0 .66.51 1.05-.04 0 0 .59-.11 2.35-.07 0 0 1.92.5 3.25-.59l.43.08s.54.9.93.62c0 0 1.18-.11 1.37.12 0 0 .4.59.2 2.11 0 0-.24.67.9.67 0 0 1.29-.24 1.13.98 0 0 .35 1.36-1.8 1.17 0 0-.27.39-.23.66 0 0-.04 4.46-.08 4.97 0 0-.04.7.9.67 0 0 1.25-.08 1.3 1.05 0 0 .15 1.49-1.65 1.21 0 0-.55.08-.63.43l-.08 1.96s.04.98-1.05.74c-.16 0-6.1.12-6.61-.04 0 0-.27-.03-.35.12"/><path id="uhy7t" d="M234.65 163.06s.27-.11.35-.31c0 0 .82-.08.94-.2l2.58.2s2.54.2 3.63-.59c0 0 .4 0 .67.12 0 0 .55.12.7.35l1.49-.04s.86.28.78.83v.7s-.15 1.4.24 1.49h1.13s.94.43.82.97c0 0 .04.79-.78.94 0 0-.82.24-1.1.2 0 0-.27.35-.3.78l-.12 5.12s-.08.55.74.47c0 0 1.21-.11 1.56.55 0 0 .32 1.13-.31 1.33l-.47.23-1.02.16s-.43.04-.47.78v1.37s.04.94-.7.94l-1.1.08s-.27.23-.82.08c0 0-6.64.11-6.88.04l-.78.15s-.86.78-1.57.2l-.54-.43s-.4.08-.55.04c-.16-.04-7.35.08-7.35.08s-1.53.15-1.65-.36c0 0-.2-2-.11-2.23 0 0 0-.58-.36-.62 0 0-1.52-.08-1.56-.24 0 0-.82-.58-.59-1.17 0 0 .28-.78 1.1-.86 0 0 1.25.2 1.25-.16 0 0 .08-.23.08-.62 0 0 .08-4.66.04-4.97 0 0 .11-.59-.4-.59 0 0-.54.16-.9-.07 0 0-.93.03-1.13-.7 0 0-.16-.48.08-.87 0 0 .43-.86 1.68-.59 0 0 .7.2.78-.3l-.04-1.89s-.15-.5.83-.78c0 0 1.25.35 1.64-.27 0 0 .43-.86.78-.28 0 0 .74.7 2.78.63 0 0 3.52-.27 3.6-.12 0 0 .86.12 1.1.4z"/><path id="uhy7u" d="M223.96 156.53s-.43 1.37-2.35-.04l-6.57-.15s-.86.27-.98-.63c0 0 .16-1.8.08-1.95 0 0 .04-.51-.82-.51 0 0-1.33.15-1.37-1.02 0 0-.24-1.25 1.6-1.21 0 0 .59.27.63-.47 0 0-.08-5.09-.04-5.48 0 0 .16-.47-.74-.55 0 0-1.3.28-1.45-.58 0 0-.08-1.3.78-1.37 0 0 1.06.08 1.25-.2 0 0 .24.16.2-.78l.04-1.6s.12-.43.78-.4c0 0 1.21.08 1.37-.03 0 0 .27-.35.35-.51 0 0 .63-.04.74.12 0 0 .94.62 4.5.39 0 0 .55 0 .67.15 0 0 .66.51 1.05-.04 0 0 .59-.11 2.35-.07 0 0 1.92.5 3.25-.59l.43.08s.54.9.93.62c0 0 1.18-.11 1.37.12 0 0 .4.59.2 2.11 0 0-.24.67.9.67 0 0 1.29-.24 1.13.98 0 0 .35 1.37-1.8 1.17 0 0-.27.39-.23.66 0 0-.04 4.46-.08 4.97 0 0-.04.7.9.67 0 0 1.25-.08 1.3 1.05 0 0 .15 1.49-1.65 1.21 0 0-.55.08-.63.44l-.08 1.95s.04.98-1.05.74c-.16 0-6.1.12-6.61-.04 0 0-.28-.04-.35.12"/><path id="uhy7v" d="M247.35 156.43s-.43 1.37-2.35-.04l-6.57-.15s-.86.27-.98-.63c0 0 .16-1.8.08-1.96 0 0 .04-.5-.82-.5 0 0-1.33.15-1.37-1.02 0 0-.24-1.25 1.6-1.21 0 0 .59.27.63-.47 0 0-.08-5.09-.04-5.48 0 0 .16-.47-.74-.55 0 0-1.3.28-1.45-.58 0 0-.08-1.3.78-1.37 0 0 1.06.08 1.25-.2 0 0 .24.16.2-.78l.04-1.6s.12-.43.78-.4c0 0 1.21.08 1.37-.03 0 0 .27-.36.35-.51 0 0 .63-.04.74.12 0 0 .94.62 4.5.39 0 0 .55 0 .67.15 0 0 .66.51 1.05-.04 0 0 .59-.11 2.35-.07 0 0 1.92.5 3.25-.59l.43.08s.54.9.93.62c0 0 1.18-.11 1.37.12 0 0 .4.59.2 2.11 0 0-.24.67.9.67 0 0 1.29-.24 1.13.98 0 0 .35 1.36-1.8 1.17 0 0-.27.39-.23.66 0 0-.04 4.46-.08 4.97 0 0-.04.7.9.67 0 0 1.25-.08 1.3 1.05 0 0 .15 1.49-1.65 1.21 0 0-.55.08-.63.43l-.08 1.96s.04.98-1.05.74c-.16 0-6.1.12-6.61-.04 0 0-.27-.03-.35.12z"/><path id="uhy7w" d="M239.95 140.32s.08.79.08.98l-.12 11.3s.12.87-.63 1.3c0 0-.2.07-.23-.47l.08-11.74s.08-1.44.82-1.37"/><path id="uhy7x" d="M239.95 140.32s.08.79.08.98l-.12 11.3s.12.87-.63 1.3c0 0-.2.07-.23-.47l.08-11.74s.08-1.44.82-1.37z"/><path id="uhy7y" d="M238.66 154.01s.08-11.03.04-11.22c-.04-.2.04.15.04.15s-.12-1.91.4-2.7c0 0-.16-.66-1.06.16l-.04 1.6s0 .9-.82.86c0 0-.94-.03-1.37.4 0 0-.24.86.66.7 0 0 1.41 0 1.49.59l-.08 5.9s.31.98-.78.98c0 0-1.33-.08-1.3.74 0 0 .28.7 1.42.47 0 0 .82.16.78.94v1.49s-.08.58.7.62h6.1s.32.04.32-.35c0 0-.04-.31-.51-.31l-5.09-.08s-.82.27-.9-.94"/><path id="uhy7z" d="M239.72 154.08s-.16.55.43.43h4.03l1.1.24s1.13-.27 0-.9c0 0-3.6.04-3.92-.04 0 0-.74-.2-.9-.23 0 0-.39-.16-.74.5"/><path id="uhy7A" d="M239.72 154.08s-.16.55.43.43h4.03l1.1.24s1.13-.27 0-.9c0 0-3.6.04-3.92-.04 0 0-.74-.2-.9-.23 0 0-.39-.16-.74.5z"/><path id="uhy7B" d="M246.4 154.64s-.74 0-.7.98c0 0 .08.74.86.74 0 0 .7-.12.63-.9 0 0-.43-.98-.78-.82"/><path id="uhy7C" d="M246.96 154.24s.35-.39.58-.39c0 0 3.92.35 4.58-.12 0 0 .59-.12.74 0 0 0 .59.47.59.75 0 0-.04.35-.74.15l-4.66.04s-1.21.27-1.1-.43"/><path id="uhy7D" d="M246.96 154.24s.35-.39.58-.39c0 0 3.92.35 4.58-.12 0 0 .59-.12.74 0 0 0 .59.47.59.75 0 0-.04.35-.74.15l-4.66.04s-1.21.27-1.1-.43z"/><path id="uhy7E" d="M247.58 155.41s0-.3.55-.3l5.47-.05s.51.28.51-.66c0 0 .2-4.27.22-8.96 0-1.4.07-2.86.02-4.22 0 0-.12-.59-.28-.7 0 0 0-.63.67-.4 0 0 .58.04.43.94l.04 1.37s-.12.59.93.43c0 0 1.06.16 1.1.55 0 0 .31.78-.94.7h-.9s-.39.24-.27.7l-.12 5.68s-.08.97.86.94c0 0 .98-.04 1.17.27 0 0 .67.98-.78.9 0 0-.9-.04-1.1.12 0 0-.15.2-.27 2.03 0 0 .08 1.1-.74.98 0 0-5.44.08-5.94-.04 0 0-.55.16-.63-.28"/><path id="uhy7F" d="M240.54 139.96l-.12 12.56s-.04.58.94.7c0 0 1.13.12 1.4 0 0 0 .75-.04 2.67.04 0 0 .47.47.5-.12 0 0 .32-10.17.16-12.28 0 0-.04-.9-.7-.94 0 0-2.98.24-3.25 0l-1.17-.31s-.47.04-.43.35"/><path id="uhy7G" d="M246.72 140.6s-.11 5.9-.08 6.1l-.07 4.96-.16 1.72s.23.35.43.12c0 0 1.25-.31 2.03-.2 0 0 2.5.24 3.02-.15 0 0 .39.2.5-.43 0 0 .16-10.96.08-11.15 0 0 .16-1.56.08-1.72 0 0-.04-.35-.7-.04 0 0 .07.31-3.64.2 0 0-1.4-.04-1.49.58"/><path id="uhy7H" d="M252.94 140.43l-.04 12.36s.31 1.1.82.98c0 0 .08-.23.12-.63l.16-11.77s-.4-1.88-1.06-.94"/><path id="uhy7I" d="M252.94 140.43l-.04 12.36s.31 1.1.82.98c0 0 .08-.23.12-.63l.16-11.77s-.4-1.88-1.06-.94z"/><path id="uhy7J" d="M248.14 144.13c-.12-.31.66-.35.66-.35l.4.08c.26-.04.54.08.54.08.27.43-.2.66-.2.66l-.15.51c-.04.43 0 4.14 0 4.14.07.2.39.55.39.55 0 .35-.43.28-.43.28l-1.14.04c-.35-.04-.23-.43-.23-.43.39-.2.5-.9.5-.9v-3.88z"/><path id="uhy7K" d="M242.86 147.78l-.08 1.2.36.6c.23.3-.16.54-.16.54l-1.25-.11c-.24-.12 0-.51 0-.51.31-.2.35-.7.35-.7l-.04-2.28.04-1.64c0-.2-.31-.55-.31-.55-.28-.03-.2-.39-.2-.39.08-.2.74-.08.74-.08h1.65c1.56.51 1.33 1.65 1.33 1.65.11 1.13-1.1 1.6-1.1 1.6l-.08.63 1.14 1.8c.2.15.15.3.15.3-.15.44-.78 0-.78 0l-1.4-2.18c-.12-.16-.36.12-.36.12zm.04-3.1c.04.87.04 2.04.04 2.04.74.59 1.17-.23 1.17-.23.98-.94 0-1.8-.15-2.04-.16-.23-.94-.04-.94-.04z"/><path id="uhy7L" d="M235.67 178.43s.46-.23.78-.15c.31.07 4.89-.04 4.89-.04s2 .15 2.3-.12l.47-.16s.2-.23.2-.54l.04-1.37.11-.4s-.03-.39 0-10.83c0 0 .16-.82-.35-1.33 0 0 0-.31.16-.27.16.04.08.04.08.04s.7-.2.82.08c0 0 .31.93.04 1.48 0 0-.08 1.14.5 1.14 0 0 .24.23.71.11 0 0 1.02.12 1.02.43 0 0 0 .7-.7.59l-.95.08s-.62.12-.54.86c.08.74-.04 6.06-.04 6.06s0 .63.98.59c0 0 1.2-.04 1.2.31 0 0 .32.78-.54.82 0 0-1.64-.04-1.52.43 0 0-.12 1.1-.2 1.3 0 0 .16.9-.04 1.05 0 0-.12.5-1.17.43 0 0-6.73-.04-7.79.04 0 0-.62-.08-.46-.63"/><path id="uhy7M" d="M234.45 177.69s.66.12.66.74c0 .63.04.98-.35 1.06-.39.08-.82-.04-.94-.55-.11-.5.08-1.13.63-1.25"/><path id="uhy7N" d="M235.23 177.38s.7-.47.98-.39c0 0 3.55.24 4.65.04 1.1-.2.43-.04.43-.04s.94 0 1.21-.35c0 0 .28-.08.43.2l.59.62s.04.4-.63.35c0 0-6.37 0-6.57.04 0 0-1.21.2-1.1-.47"/><path id="uhy7O" d="M235.23 177.38s.7-.47.98-.39c0 0 3.55.24 4.65.04 1.1-.2.43-.04.43-.04s.94 0 1.21-.35c0 0 .28-.08.43.2l.59.62s.04.4-.63.35c0 0-6.37 0-6.57.04 0 0-1.21.2-1.1-.47z"/><path id="uhy7P" d="M225.96 163.5s.28 0 .24.47l-.08 11.81s.12.78-.55 1.3c0 0-.35.42-.35-.24l.16-12.05s.04-.9.58-1.29"/><path id="uhy7Q" d="M225.96 163.5s.28 0 .24.47l-.08 11.81s.12.78-.55 1.3c0 0-.35.42-.35-.24l.16-12.05s.04-.9.58-1.29z"/><path id="uhy7R" d="M225.33 163.57s-.47.86-.43 1.06l-.04 2.62s-.04 1.68 0 1.88c.04.2-.04 5.12-.04 5.12s-.03.94 0 1.25v2.11s-.07.94.63.7c0 0 6.88-.15 7.31-.03 0 0 .63.12.4.43 0 0 0 .27-.43.2 0 0-3.25.3-6.18.19 0 0-1.96.12-2.08-.12 0 0-.31-.04-.31-1.17 0 0 0-1.06-.08-1.25 0 0 .08-.55-.9-.67 0 0-1.37.24-1.4-.58 0 0 .19-.59 1.52-.51 0 0 .98.15.78-.63l.12-5.79s.12-1.01-.55-1.05c0 0-.63-.04-.82.04 0 0-1.13 0-1.06-.67 0 0 .4-.7 1.53-.55 0 0 .86.16.9-.82 0 0-.04-2 .43-2.07 0 0 .98.04.7.31"/><path id="uhy7S" d="M226.51 176.52s.55.59 1.45.55l5.32.08s.59.04.55.35c0 0-.08.47-.79.31l-6.41-.08-.7.04s-.47-.08.27-.98z"/><path id="uhy7T" d="M242.94 176s.47.9.7 1.02c0 0 .43.51.32-.39l.08-11.26s-.12-.4 0-1.02l-.47-.86s-.51-.39-.51.23l-.08 12.01z"/><path id="uhy7U" d="M234.26 170.65s.04.94-.08 1.84c-.07.49.15 2.78-.04 3.95 0 0-.04.39-.86.04 0 0-5 .12-5.16-.04 0 0-1.37.04-1.49-.67 0 0 .2-5.35.08-5.55 0 0-.08-2.93 0-3.2 0 0 .12-2.7.04-3.02 0 0 .04-.63-.08-.94 0 0 0-.39.66-.15 0 0 .24.43 1.53.23 0 0 .94.16 1.84.04 0 0 2-.16 2.5 0 0 0 .78-.16 1.02.7l-.04 2.43.23.78.28-.2.11-.58.04-2.58s.16-.47.79-.55c0 0 .97-.12 1.13-.04.16.08 2.27.2 2.85.08.6-.12.7.39 2.47-.51 0 0 .47.04.47.35 0 0-.16 3.33 0 3.95 0 0 0 6.1-.12 6.53l.08 1.96s.08.86-1.3.94c0 0 .87.12-4.53-.04 0 0-.86-.04-1.8.39 0 0-.2-.04-.2-.55 0 0 .16-1.84 0-3.63l-.07-2z"/><path id="uhy7V" d="M230.73 167.88s.12 2.9 0 3.28l-.04.63s.16.43.4.58c0 0 .19.55-.28.51 0 0-.98-.08-1.21-.04 0 0-.55 0 0-.7 0 0 .2-.27.15-.98 0 0 0-3.28.08-3.48 0 0 .08-.43-.2-.55l-.46.04-.59.55s-.12.59-.39-.04v-.31l.35-.94.24-.04s.35.23.66.31h1.84l.66-.31s.28.04.2.4c0 0 .12.9-.4 1 0 0-.3-.1-.46-.54 0 0-.5-.27-.55.63"/><path id="uhy7W" d="M239.37 166.82s-1.48-.12-1.52 1.49c0 0-.16 1.1 1.49 1.8 0 0 1.2.58 1.13 1.33 0 0-.16 1.33-1.45.66 0 0-.62-.31-.58-.66 0 0-.2-.43-.43-.36 0 0-.28.08-.16 1.37 0 0 0 .51.59 0l.3.08s1.07.86 1.96-.2c0 0 .98-.9.28-1.99 0 0-.51-.78-1.4-1.17 0 0-.87-.4-1.07-1.06 0 0 .28-1.17 1.33-.54 0 0 .4.46.63.54 0 0 .31 0 .23-.7l-.07-.59s-.08-.43-.63 0c0 0-.5.2-.63 0"/><path id="uhy7X" d="M234.61 166c.27.2.31.58.31.58a45.38 45.38 0 0 1 1.45 5.09c.2.39.55.7.55.7.66.24 0 .43 0 .43-.28.12-1.17-.04-1.17-.04-.47-.08-.28-.23-.28-.23.2-.2.04-.98.04-.98-.04-.31-.4-.82-.4-.82-.15-.08-.42.27-.42.27s-.43.16-.47 0c-.04-.15-.31-.3-.31-.3-.47 0-.67 1.16-.67 1.16.28.98 0 .82 0 .82-.23.32-.98.08-.98.08-.35-.08-.11-.35-.11-.35.43-.08.54-.55.54-.55.2-.27 1.45-5.35 1.45-5.35.12-.24.2-.7.47-.51zm-.63 2.58c-.03.2-.3 1.29-.3 1.29l.23.39s.62.04.86.04c.23 0 .27-.2.27-.4 0-.19-.43-1.36-.43-1.36l-.2-.24z"/><path id="uhy7Y" d="M223.96 156.53s-.43 1.37-2.35-.04l-6.57-.15s-.86.27-.98-.63c0 0 .16-1.8.08-1.95 0 0 .04-.51-.82-.51 0 0-1.33.15-1.37-1.02 0 0-.24-1.25 1.6-1.21 0 0 .59.27.63-.47 0 0-.08-5.09-.04-5.48 0 0 .16-.47-.74-.55 0 0-1.3.28-1.45-.58 0 0-.08-1.3.78-1.37 0 0 1.06.08 1.25-.2 0 0 .24.16.2-.78l.04-1.6s.12-.43.78-.4c0 0 1.21.08 1.37-.03 0 0 .27-.35.35-.51 0 0 .63-.04.74.12 0 0 .94.62 4.5.39 0 0 .55 0 .67.15 0 0 .66.51 1.05-.04 0 0 .59-.11 2.35-.07 0 0 1.92.5 3.25-.59l.43.08s.54.9.93.62c0 0 1.18-.11 1.37.12 0 0 .4.59.2 2.11 0 0-.24.67.9.67 0 0 1.29-.24 1.13.98 0 0 .35 1.37-1.8 1.17 0 0-.27.39-.23.66 0 0-.04 4.46-.08 4.97 0 0-.04.7.9.67 0 0 1.25-.08 1.3 1.05 0 0 .15 1.49-1.65 1.21 0 0-.55.08-.63.44l-.08 1.95s.04.98-1.05.74c-.16 0-6.1.12-6.61-.04 0 0-.28-.04-.35.12z"/><path id="uhy7Z" d="M216.57 140.41s.08.79.08.98l-.12 11.3s.12.86-.63 1.3c0 0-.2.07-.23-.48l.08-11.73s.08-1.45.82-1.37"/><path id="uhy7aa" d="M216.57 140.41s.08.79.08.98l-.12 11.3s.12.86-.63 1.3c0 0-.2.07-.23-.48l.08-11.73s.08-1.45.82-1.37z"/><path id="uhy7ab" d="M215.27 154.1s.08-11.03.04-11.22c-.04-.2.04.15.04.15s-.12-1.91.4-2.7c0 0-.16-.66-1.06.16l-.04 1.6s0 .9-.82.87c0 0-.94-.04-1.37.39 0 0-.24.86.66.7 0 0 1.41 0 1.49.59l-.08 5.9s.31.98-.78.98c0 0-1.33-.08-1.3.74 0 0 .28.7 1.42.47 0 0 .82.16.78.94v1.49s-.08.58.7.62h6.1s.32.04.32-.35c0 0-.04-.31-.51-.31l-5.09-.08s-.82.27-.9-.94"/><path id="uhy7ac" d="M216.33 154.18s-.16.55.43.44h4.03l1.1.23s1.13-.27 0-.9c0 0-3.6.04-3.92-.04 0 0-.74-.2-.9-.23 0 0-.39-.16-.74.5"/><path id="uhy7ad" d="M216.33 154.18s-.16.55.43.44h4.03l1.1.23s1.13-.27 0-.9c0 0-3.6.04-3.92-.04 0 0-.74-.2-.9-.23 0 0-.39-.16-.74.5z"/><path id="uhy7ae" d="M223.03 154.73s-.75 0-.7.97c0 0 .07.75.85.75 0 0 .7-.12.63-.9 0 0-.43-.98-.78-.82"/><path id="uhy7af" d="M223.57 154.34s.35-.4.58-.4c0 0 3.92.36 4.58-.1 0 0 .59-.12.74 0 0 0 .59.46.59.74 0 0-.04.35-.74.15l-4.66.04s-1.2.28-1.1-.43"/><path id="uhy7ag" d="M223.57 154.34s.35-.4.58-.4c0 0 3.92.36 4.58-.1 0 0 .59-.12.74 0 0 0 .59.46.59.74 0 0-.04.35-.74.15l-4.66.04s-1.2.28-1.1-.43z"/><path id="uhy7ah" d="M224.19 155.52s0-.32.55-.32l5.47-.04s.51.28.51-.66c0 0 .2-4.27.22-8.96 0-1.4.07-2.86.02-4.22 0 0-.12-.59-.28-.7 0 0 0-.63.67-.4 0 0 .58.04.43.94l.04 1.37s-.12.59.94.43c0 0 1.05.16 1.09.55 0 0 .31.78-.94.7h-.9s-.39.24-.27.7l-.12 5.68s-.08.97.86.94c0 0 .98-.04 1.17.27 0 0 .67.98-.78.9 0 0-.9-.04-1.1.12 0 0-.15.2-.27 2.03 0 0 .08 1.1-.74.98 0 0-5.44.08-5.94-.04 0 0-.55.16-.63-.27"/><path id="uhy7ai" d="M217.16 140.06l-.12 12.56s-.04.58.94.7c0 0 1.13.12 1.4 0 0 0 .75-.04 2.67.04 0 0 .47.47.5-.12 0 0 .32-10.17.16-12.28 0 0-.04-.9-.7-.94 0 0-2.98.24-3.25 0l-1.17-.31s-.47.04-.43.35"/><path id="uhy7aj" d="M229.55 140.53l-.04 12.36s.31 1.1.82.98c0 0 .08-.23.12-.63l.16-11.77s-.4-1.88-1.06-.94"/><path id="uhy7ak" d="M229.55 140.53l-.04 12.36s.31 1.1.82.98c0 0 .08-.23.12-.63l.16-11.77s-.4-1.88-1.06-.94z"/><path id="uhy7al" d="M223.33 140.63s-.11 5.9-.08 6.1l-.07 4.97-.16 1.72s.23.35.43.12c0 0 1.25-.31 2.03-.2 0 0 2.5.24 3.02-.15 0 0 .39.2.5-.43 0 0 .16-10.95.08-11.15 0 0 .16-1.56.08-1.72 0 0-.04-.35-.7-.04 0 0 .08.31-3.64.2 0 0-1.4-.04-1.49.58"/><path id="uhy7am" d="M222.13 144.25l-.36.75s-.86 3.79-1.33 4.57c0 0-.07.78-.74.16 0 0-1.52-4.81-1.6-4.97l-.51-.35s-.31-.43.23-.47l1.45.04s.47.39-.16.82c0 0 .08.63.9 3.01 0 0 .24.9.51.24l.78-2.78-.23-.82s-.24-.4.12-.43c0 0 .82-.08.94.23"/><path id="uhy7an" d="M224.4 144.88l-.04 4.15-.12.31s-.4.5-.12.55c0 0-.35.23 2.5.27 0 0 1.1.2.83-1.21 0 0-.12-.5-.51.23 0 0-.12.63-1.53.44 0 0-.31-.28-.31-.6v-1.71s-.04-.43.63-.4c0 0 .74.48.86.28 0 0 .27-.63 0-1.02 0 0-.36-.04-.4.12 0 0-.23.47-.9.2 0 0-.3-.63-.11-1.14 0 0-.08-.98.58-.9 0 0 .79.16.86.4 0 0 .2.46.4-.09l-.2-.66s-.12-.27-.31-.2c0 0-1.33.2-1.49.04l-1.06.12s-.15.4.32.59c0 0 .11.08.11.23"/><clipPath id="uhy7d"><use xlink:href="#uhy7a"/></clipPath></defs><g><g transform="translate(-145 -57)"><g><use fill="#fefefe" xlink:href="#uhy7b"/></g><g><use fill="#fefefe" xlink:href="#uhy7c"/></g><g><g/><g clip-path="url(#uhy7d)"><use fill="#fefefe" xlink:href="#uhy7e"/></g></g><g><use fill="#fefefe" xlink:href="#uhy7f"/></g><g><use fill="#fefefe" xlink:href="#uhy7g"/></g><g><use fill="#fefefe" xlink:href="#uhy7h"/></g><g><use fill="#fefefe" xlink:href="#uhy7i"/></g><g><use fill="#fefefe" xlink:href="#uhy7j"/></g><g><use fill="#fefefe" xlink:href="#uhy7k"/></g><g><use fill="#fefefe" xlink:href="#uhy7l"/></g><g><use fill="#fefefe" xlink:href="#uhy7m"/></g><g><use fill="#fefefe" xlink:href="#uhy7n"/></g><g><use fill="#fefefe" xlink:href="#uhy7o"/></g><g><use fill="#fefefe" xlink:href="#uhy7p"/></g><g><use fill="#af263d" xlink:href="#uhy7q"/></g><g><use fill="#231f20" xlink:href="#uhy7r"/></g><g><use fill="#fefefe" xlink:href="#uhy7s"/></g><g><use fill="#fefefe" xlink:href="#uhy7t"/></g><g><use fill="#fefefe" xlink:href="#uhy7u"/></g><g><use fill="#231f20" xlink:href="#uhy7s"/></g><g><use fill="#fff" fill-opacity="0" stroke="#231f20" stroke-miterlimit="50" stroke-width="1.08" xlink:href="#uhy7v"/></g><g><use fill="#fefefe" xlink:href="#uhy7w"/></g><g><use fill="#fff" fill-opacity="0" stroke="#231f20" stroke-miterlimit="50" stroke-width=".54" xlink:href="#uhy7x"/></g><g><use fill="#fefefe" xlink:href="#uhy7y"/></g><g><use fill="#fefefe" xlink:href="#uhy7z"/></g><g><use fill="#fff" fill-opacity="0" stroke="#231f20" stroke-miterlimit="50" stroke-width=".54" xlink:href="#uhy7A"/></g><g><use fill="#fefefe" xlink:href="#uhy7B"/></g><g><use fill="#fefefe" xlink:href="#uhy7C"/></g><g><use fill="#fff" fill-opacity="0" stroke="#231f20" stroke-miterlimit="50" stroke-width=".54" xlink:href="#uhy7D"/></g><g><use fill="#fefefe" xlink:href="#uhy7E"/></g><g><use fill="#fefefe" xlink:href="#uhy7F"/></g><g><use fill="#fefefe" xlink:href="#uhy7G"/></g><g><use fill="#fefefe" xlink:href="#uhy7H"/></g><g><use fill="#fff" fill-opacity="0" stroke="#231f20" stroke-miterlimit="50" stroke-width=".54" xlink:href="#uhy7I"/></g><g><use fill="#231f20" xlink:href="#uhy7J"/></g><g><use fill="#231f20" xlink:href="#uhy7K"/></g><g><use fill="#231f20" xlink:href="#uhy7t"/></g><g><use fill="#fff" fill-opacity="0" stroke="#231f20" stroke-miterlimit="50" stroke-width="1.08" xlink:href="#uhy7t"/></g><g><use fill="#fefefe" xlink:href="#uhy7L"/></g><g><use fill="#fefefe" xlink:href="#uhy7M"/></g><g><use fill="#fefefe" xlink:href="#uhy7N"/></g><g><use fill="#fff" fill-opacity="0" stroke="#231f20" stroke-miterlimit="50" stroke-width=".54" xlink:href="#uhy7O"/></g><g><use fill="#fefefe" xlink:href="#uhy7P"/></g><g><use fill="#fff" fill-opacity="0" stroke="#231f20" stroke-miterlimit="50" stroke-width=".54" xlink:href="#uhy7Q"/></g><g><use fill="#fefefe" xlink:href="#uhy7R"/></g><g><use fill="#fefefe" xlink:href="#uhy7S"/></g><g><use fill="#fff" fill-opacity="0" stroke="#231f20" stroke-miterlimit="50" stroke-width=".54" xlink:href="#uhy7S"/></g><g><use fill="#fefefe" xlink:href="#uhy7T"/></g><g><use fill="#fff" fill-opacity="0" stroke="#231f20" stroke-miterlimit="50" stroke-width=".54" xlink:href="#uhy7T"/></g><g><use fill="#fefefe" xlink:href="#uhy7U"/></g><g><use fill="#231f20" xlink:href="#uhy7V"/></g><g><use fill="#231f20" xlink:href="#uhy7W"/></g><g><use fill="#231f20" xlink:href="#uhy7X"/></g><g><use fill="#231f20" xlink:href="#uhy7u"/></g><g><use fill="#fff" fill-opacity="0" stroke="#231f20" stroke-miterlimit="50" stroke-width="1.08" xlink:href="#uhy7Y"/></g><g><use fill="#fefefe" xlink:href="#uhy7Z"/></g><g><use fill="#fff" fill-opacity="0" stroke="#231f20" stroke-miterlimit="50" stroke-width=".54" xlink:href="#uhy7aa"/></g><g><use fill="#fefefe" xlink:href="#uhy7ab"/></g><g><use fill="#fefefe" xlink:href="#uhy7ac"/></g><g><use fill="#fff" fill-opacity="0" stroke="#231f20" stroke-miterlimit="50" stroke-width=".54" xlink:href="#uhy7ad"/></g><g><use fill="#fefefe" xlink:href="#uhy7ae"/></g><g><use fill="#fefefe" xlink:href="#uhy7af"/></g><g><use fill="#fff" fill-opacity="0" stroke="#231f20" stroke-miterlimit="50" stroke-width=".54" xlink:href="#uhy7ag"/></g><g><use fill="#fefefe" xlink:href="#uhy7ah"/></g><g><use fill="#fefefe" xlink:href="#uhy7ai"/></g><g><use fill="#fefefe" xlink:href="#uhy7aj"/></g><g><use fill="#fff" fill-opacity="0" stroke="#231f20" stroke-miterlimit="50" stroke-width=".54" xlink:href="#uhy7ak"/></g><g><use fill="#fefefe" xlink:href="#uhy7al"/></g><g><use fill="#231f20" xlink:href="#uhy7am"/></g><g><use fill="#231f20" xlink:href="#uhy7an"/></g></g></g></svg>
