<svg xmlns="http://www.w3.org/2000/svg" xmlns:xlink="http://www.w3.org/1999/xlink" width="2256" height="640" viewBox="0 0 2256 640"><defs><path id="ynmsa" d="M-170 952.22c70.76-67.38 310.73-356.33 550.26-290.55 220.06 60.44 199.19 232.08 367.26 313.77 284.26 138.16 456.31-356.46 790.31-250.18 169.55 53.96 278.2 175.93 389.17 252.9"/><path id="ynmsb" d="M-170 955.14c72.8-64.22 309.73-342.19 546.82-276.04 218.08 60.81 201.85 229.77 370.5 310.39 255.99 121.77 424.67-249.15 692.93-261.86 33.16-1.53 67.77 2.5 104.47 13.53 169.06 50.8 279.26 167 391.28 239.82"/><path id="ynmsc" d="M-172 960.81c74.8-61.23 308.56-328.91 543.1-262.22 216 61.34 203.99 228.23 373.55 307.81 258.3 121.22 432.08-244.2 700.23-259.33 33.02-1.86 67.37 1.85 103.93 12.2C1717.3 807.05 1829 917.78 1942 986.62"/><path id="ynmsd" d="M-173 964.94c76.82-57.89 307.52-313.72 539.6-246.9 214.03 61.53 206.46 225.28 376.8 303.45 261.11 119.82 439.73-237.66 707.88-255.3 32.91-2.16 67.03 1.18 103.44 10.82 168.1 44.47 281.24 149.07 395.28 213.54"/><path id="ynmse" d="M-176 970.76c78.83-54.42 308.2-302.2 537.83-235.43 212.1 61.54 209 221.74 380.13 298.3 263.98 118.12 447.45-230.53 715.66-250.6 32.8-2.45 66.7.51 102.95 9.4 167.77 41.1 282.34 139.34 397.43 199.3"/><path id="ynmsf" d="M-175 973.2c80.82-51.39 305.37-284.35 532.47-217.12 210.13 62.02 211.5 219.94 383.36 295.51 266.8 117.33 455.05-225.23 723.27-247.9 32.68-2.76 66.37-.14 102.45 8.06C1734 849.82 1849.9 942.51 1966 998.45"/><path id="ynmsg" d="M-175 976.94C-92.25 928.6 129.1 706 353.6 773.71c208.09 62.54 213.96 218.22 386.48 292.83 269.58 116.57 462.52-219.98 730.67-245.28 32.54-3.07 66.03-.8 101.92 6.72 167.1 35.04 284.25 122.19 401.33 174.1"/><path id="ynmsh" d="M-177 980.43c84.65-45.02 302.82-255.88 524.7-188.13 206.04 62.67 216.42 215.15 389.6 288.33 272.38 115.1 470-213.36 738.09-241.13 32.42-3.36 65.7-1.47 101.4 5.33 166.84 31.82 285.16 112.89 403.21 160.47"/><path id="ynmsi" d="M-178 984.23c86.56-41.92 301.64-242.4 520.99-174.21 204.12 63.18 219.03 213.36 392.94 285.56 275.34 114.3 477.7-208.01 745.88-238.44 32.3-3.66 65.43-2.13 100.92 4 166.72 28.77 286.2 104.27 405.27 147.81"/><path id="ynmsj" d="M-179 990.04c88.4-38.82 300.28-228.84 516.99-160.25 202.1 63.68 221.55 211.52 396.1 282.73 278.2 113.49 485.22-202.59 753.38-235.68 32.18-3.98 65.13-2.81 100.4 2.63 166.59 25.72 287.1 95.64 407.13 135.12"/><path id="ynmsk" d="M-179 994.4c90.17-35.48 298.89-214.6 513-145.82 200.09 63.97 224.08 208.98 399.27 278.96 281.08 112.29 492.72-196.48 760.85-232.15 32.06-4.27 64.86-3.48 99.88 1.27 166.53 22.57 288 86.7 409 121.98"/><path id="ynmsl" d="M-181 997.86c91.9-32.15 297.46-200.37 508.94-131.42 198.09 64.23 226.65 206.38 402.46 275.13 284 111.05 500.26-190.34 768.38-228.58 31.93-4.55 64.6-4.14 99.37-.09 166.53 19.42 288.9 77.77 410.85 108.88"/><path id="ynmsm" d="M-181 1002.49c93.56-28.73 296-186.22 504.9-117.13 196.08 64.5 229.22 203.74 405.65 271.24 286.93 109.79 507.78-184.15 775.89-224.94 31.8-4.84 64.36-4.81 98.85-1.45 166.61 16.26 289.81 68.88 412.71 95.8"/><path id="ynmsn" d="M-181 1006.67c95.14-25.32 294.5-172.69 500.87-103.24 194.07 64.93 231.8 201.67 408.82 268.13 289.88 108.83 515.3-178.49 783.4-221.96 31.68-5.14 64.13-5.5 98.34-2.81 166.75 13.14 290.73 60.22 414.57 83.04"/><path id="ynmso" d="M-183 1011.96c96.69-21.8 293.1-159.15 497.07-89.36 192.15 65.34 234.5 199.52 412.18 264.92 292.98 107.83 523.07-172.74 791.26-218.9 31.57-5.44 63.93-6.2 97.86-4.17 167.04 9.98 291.78 51.54 416.63 70.25"/><path id="ynmsp" d="M-184 1017.38c98.14-18.24 291.56-145.6 493.03-75.5 190.14 65.74 237.11 197.3 415.36 261.6 295.98 106.78 530.61-166.9 798.77-215.74 31.45-5.73 63.72-6.9 97.35-5.53 167.29 6.8 292.7 42.86 418.49 57.44"/><path id="ynmsq" d="M-185 1021.97c99.49-14.5 290-132.1 489.11-61.68 188.11 66.1 239.7 194.97 418.5 258.17 298.94 105.67 538.1-160.98 806.2-212.49 31.31-6.02 63.55-5.82 96.82-6.89 167.35-5.37 293.62 33.8 420.37 44.62"/><path id="ynmsr" d="M-186 1026.75c100.78-10.7 288.44-118.6 485.23-47.89 186.07 66.43 242.3 192.53 421.61 254.59 301.94 104.48 545.58-154.96 813.6-209.12 31.2-6.3 63.54-6.5 96.3-8.24 166.76-8.84 294.51 25.1 422.26 31.8"/><path id="ynmss" d="M-187 1031.95c102.03-6.78 287.02-105.47 481.67-34.25 184.1 66.92 245 190.58 424.9 251.66 305.04 103.57 553.25-149.32 821.29-206.28 31.08-6.6 63.53-7.24 95.8-9.63 166.23-12.3 295.54 16.48 424.34 19.08"/><path id="ynmst" d="M-188 1035.34c103.2-2.8 285.47-92.27 477.94-20.57 182.05 67.36 247.58 188.46 427.96 248.52 308.02 102.56 560.68-143.54 828.59-203.27 30.95-6.9 62.9-9.8 95.26-11 168.76-6.32 296.6 8.27 426.25 6.32"/></defs><g><g opacity=".6" transform="translate(188 -650)"><g opacity=".6"><use fill="#fff" fill-opacity="0" stroke="silver" stroke-dasharray="1 10" stroke-linecap="round" stroke-linejoin="round" stroke-miterlimit="50" stroke-width="3" xlink:href="#ynmsa"/></g><g opacity=".6"><use fill="#fff" fill-opacity="0" stroke="silver" stroke-dasharray="1 10" stroke-linecap="round" stroke-linejoin="round" stroke-miterlimit="50" stroke-width="3" xlink:href="#ynmsb"/></g><g opacity=".6"><use fill="#fff" fill-opacity="0" stroke="silver" stroke-dasharray="1 10" stroke-linecap="round" stroke-linejoin="round" stroke-miterlimit="50" stroke-width="3" xlink:href="#ynmsc"/></g><g opacity=".6"><use fill="#fff" fill-opacity="0" stroke="silver" stroke-dasharray="1 10" stroke-linecap="round" stroke-linejoin="round" stroke-miterlimit="50" stroke-width="3" xlink:href="#ynmsd"/></g><g opacity=".6"><use fill="#fff" fill-opacity="0" stroke="silver" stroke-dasharray="1 10" stroke-linecap="round" stroke-linejoin="round" stroke-miterlimit="50" stroke-width="3" xlink:href="#ynmse"/></g><g opacity=".6"><use fill="#fff" fill-opacity="0" stroke="silver" stroke-dasharray="1 10" stroke-linecap="round" stroke-linejoin="round" stroke-miterlimit="50" stroke-width="3" xlink:href="#ynmsf"/></g><g opacity=".6"><use fill="#fff" fill-opacity="0" stroke="silver" stroke-dasharray="1 10" stroke-linecap="round" stroke-linejoin="round" stroke-miterlimit="50" stroke-width="3" xlink:href="#ynmsg"/></g><g opacity=".6"><use fill="#fff" fill-opacity="0" stroke="silver" stroke-dasharray="1 10" stroke-linecap="round" stroke-linejoin="round" stroke-miterlimit="50" stroke-width="3" xlink:href="#ynmsh"/></g><g opacity=".6"><use fill="#fff" fill-opacity="0" stroke="silver" stroke-dasharray="1 10" stroke-linecap="round" stroke-linejoin="round" stroke-miterlimit="50" stroke-width="3" xlink:href="#ynmsi"/></g><g opacity=".6"><use fill="#fff" fill-opacity="0" stroke="silver" stroke-dasharray="1 10" stroke-linecap="round" stroke-linejoin="round" stroke-miterlimit="50" stroke-width="3" xlink:href="#ynmsj"/></g><g opacity=".6"><use fill="#fff" fill-opacity="0" stroke="silver" stroke-dasharray="1 10" stroke-linecap="round" stroke-linejoin="round" stroke-miterlimit="50" stroke-width="3" xlink:href="#ynmsk"/></g><g opacity=".6"><use fill="#fff" fill-opacity="0" stroke="silver" stroke-dasharray="1 10" stroke-linecap="round" stroke-linejoin="round" stroke-miterlimit="50" stroke-width="3" xlink:href="#ynmsl"/></g><g opacity=".4"><use fill="#fff" fill-opacity="0" stroke="silver" stroke-dasharray="1 10" stroke-linecap="round" stroke-linejoin="round" stroke-miterlimit="50" stroke-width="3" xlink:href="#ynmsm"/></g><g opacity=".4"><use fill="#fff" fill-opacity="0" stroke="silver" stroke-dasharray="1 10" stroke-linecap="round" stroke-linejoin="round" stroke-miterlimit="50" stroke-width="3" xlink:href="#ynmsn"/></g><g opacity=".6"><use fill="#fff" fill-opacity="0" stroke="silver" stroke-dasharray="1 10" stroke-linecap="round" stroke-linejoin="round" stroke-miterlimit="50" stroke-width="3" xlink:href="#ynmso"/></g><g opacity=".6"><use fill="#fff" fill-opacity="0" stroke="silver" stroke-dasharray="1 10" stroke-linecap="round" stroke-linejoin="round" stroke-miterlimit="50" stroke-width="3" xlink:href="#ynmsp"/></g><g opacity=".6"><use fill="#fff" fill-opacity="0" stroke="silver" stroke-dasharray="1 10" stroke-linecap="round" stroke-linejoin="round" stroke-miterlimit="50" stroke-width="3" xlink:href="#ynmsq"/></g><g opacity=".6"><use fill="#fff" fill-opacity="0" stroke="silver" stroke-dasharray="1 10" stroke-linecap="round" stroke-linejoin="round" stroke-miterlimit="50" stroke-width="3" xlink:href="#ynmsr"/></g><g opacity=".6"><use fill="#fff" fill-opacity="0" stroke="silver" stroke-dasharray="1 10" stroke-linecap="round" stroke-linejoin="round" stroke-miterlimit="50" stroke-width="3" xlink:href="#ynmss"/></g><g opacity=".6"><use fill="#fff" fill-opacity="0" stroke="silver" stroke-dasharray="1 10" stroke-linecap="round" stroke-linejoin="round" stroke-miterlimit="50" stroke-width="3" xlink:href="#ynmst"/></g></g></g></svg>
